<?xml version="1.0" encoding="UTF-8" standalone="no"?>
<svg width="139px" height="139px" viewBox="0 0 139 139" version="1.1" xmlns="http://www.w3.org/2000/svg" xmlns:xlink="http://www.w3.org/1999/xlink">
    <!-- Generator: Sketch 3.6.1 (26313) - http://www.bohemiancoding.com/sketch -->
    <title>back</title>
    <desc>Created with Sketch.</desc>
    <defs></defs>
    <g id="Page-1" stroke="none" stroke-width="1" fill="none" fill-rule="evenodd">
        <g id="icons" transform="translate(-618.000000, -1130.000000)">
            <path d="M757,1199.5 C757,1161.11621 725.88379,1130 687.5,1130 C649.11621,1130 618,1161.11621 618,1199.5 C618,1237.88379 649.11621,1269 687.5,1269 C725.88379,1269 757,1237.88379 757,1199.5 Z" id="Oval-14-Copy-2" fill="#89000F"></path>
            <g id="logo-white-copy-3" transform="translate(625.000000, 1159.000000)" fill="#FFFFFF">
                <g id="logo-white">
                    <g>
                        <g id="Page-1">
                            <g id="logo_white">
                                <path d="M13.228891,42.5925483 L54.5651419,69.0405369 L52.7216673,71.8373535 L11.3854165,45.3893649 L13.228891,42.5925483 L13.228891,42.5925483 Z" id="Rectangle-8"></path>
                                <path d="M52.0861513,78.1779162 C55.658688,80.4637164 60.434769,79.4645416 62.7538266,75.9461969 C65.0728843,72.4278522 64.0567387,67.7226631 60.484202,65.4368629 C56.9116653,63.1510627 52.1355844,64.1502374 49.8165267,67.6685821 C47.4974691,71.1869269 48.5136146,75.892116 52.0861513,78.1779162 L52.0861513,78.1779162 Z" id="Oval-8"></path>
                                <path d="M29.7928015,42.4787164 L28.6163377,52.7713144 L20.7277401,47.7239884 L29.7928015,42.4787164 L29.7928015,42.4787164 Z" id="Triangle-1"></path>
                                <path d="M38.3124868,47.9298285 L37.1360229,58.2224265 L29.2474253,53.1751004 L38.3124868,47.9298285 L38.3124868,47.9298285 Z" id="Triangle-1-Copy"></path>
                                <path d="M46.832172,53.3809405 L45.6557081,63.6735385 L37.7671106,58.6262125 L46.832172,53.3809405 L46.832172,53.3809405 Z" id="Triangle-1-Copy-2"></path>
                                <path d="M11.3854163,37.3771256 L52.7216672,10.929137 L54.5651418,13.7259535 L13.2288909,40.1739421 L11.3854163,37.3771256 L11.3854163,37.3771256 Z" id="Rectangle-8"></path>
                                <path d="M60.2090093,13.9915668 C63.781546,11.7057666 64.7976915,7.0005775 62.4786339,3.48223278 C60.1595762,-0.0361119358 55.3834953,-1.03528669 51.8109585,1.25051351 C48.2384218,3.5363137 47.2222763,8.24150282 49.541334,11.7598475 C51.8603916,15.2781923 56.6364725,16.277367 60.2090093,13.9915668 L60.2090093,13.9915668 Z" id="Oval-8"></path>
                                <g id="Triangle-1-+-Triangle-1-Copy-+-Triangle-1-Copy-2" transform="translate(35.641275, 30.725962) rotate(-180.000000) translate(-35.641275, -30.725962) translate(20.250724, 18.355769)">
                                    <path d="M4.42131454,14.1630699 L13.486376,19.4083418 L5.59777842,24.4556679 L4.42131454,14.1630699 L4.42131454,14.1630699 Z" id="Triangle-1"></path>
                                    <path d="M12.941,8.71195812 L22.0060613,13.95723 L14.1174638,19.0045561 L12.941,8.71195812 L12.941,8.71195812 Z" id="Triangle-1-Copy"></path>
                                    <path d="M21.4606854,3.26084635 L30.5257468,8.5061183 L22.6371493,13.5534443 L21.4606854,3.26084635 L21.4606854,3.26084635 Z" id="Triangle-1-Copy-2"></path>
                                </g>
                                <ellipse id="Oval-8" cx="7.71298075" cy="41.3147321" rx="7.71298075" ry="7.59598214"></ellipse>
                            </g>
                        </g>
                    </g>
                </g>
            </g>
            <path d="M680.75,1182.12104 L680.75,1183.37104 L682,1183.37104 L747.705078,1183.37104 L746.455078,1182.12104 L746.455078,1214.72818 L747.705078,1213.47818 L682,1213.47818 L680.75,1213.47818 L680.75,1214.72818 L680.75,1229.37882 L683.25,1229.37882 L683.25,1214.72818 L682,1215.97818 L747.705078,1215.97818 L748.955078,1215.97818 L748.955078,1214.72818 L748.955078,1182.12104 L748.955078,1180.87104 L747.705078,1180.87104 L682,1180.87104 L683.25,1182.12104 L683.25,1167 L680.75,1167 L680.75,1182.12104 Z" id="Shape" fill="#FFFFFF"></path>
        </g>
    </g>
</svg>