<?xml version="1.0" encoding="UTF-8" standalone="no"?>
<svg width="139px" height="139px" viewBox="0 0 139 139" version="1.1" xmlns="http://www.w3.org/2000/svg" xmlns:xlink="http://www.w3.org/1999/xlink">
    <!-- Generator: Sketch 3.6.1 (26313) - http://www.bohemiancoding.com/sketch -->
    <title>eatTwitter</title>
    <desc>Created with Sketch.</desc>
    <defs></defs>
    <g id="Page-1" stroke="none" stroke-width="1" fill="none" fill-rule="evenodd">
        <g id="icons" transform="translate(-817.000000, -1292.000000)">
            <g id="eatTwitter" transform="translate(817.000000, 1292.000000)" fill="#00ACED">
                <g id="Page-1">
                    <path d="M69.5,139 C107.88379,139 139,107.88379 139,69.5 C139,31.1162099 107.88379,0 69.5,0 C31.1162099,0 0,31.1162099 0,69.5 C0,107.88379 31.1162099,139 69.5,139 L69.5,139 Z" id="Oval-14-Copy-2"></path>
                </g>
            </g>
            <g id="logo-white" transform="translate(821.000000, 1310.000000)" fill="#FFFFFF">
                <g id="Page-1">
                    <g>
                        <g id="logo_white">
                            <rect id="Rectangle-8" transform="translate(40.708765, 71.691023) rotate(33.000000) translate(-40.708765, -71.691023) " x="10.285268" y="69.6017371" width="60.8469945" height="4.17857143"></rect>
                            <ellipse id="Oval-8" transform="translate(69.485387, 89.975524) rotate(33.000000) translate(-69.485387, -89.975524) " cx="69.4853873" cy="89.9755242" rx="9.52185792" ry="9.51785714"></ellipse>
                            <path d="M33.6190695,52.2900566 L39.4250805,63.8971995 L27.8130586,63.8971995 L33.6190695,52.2900566 Z" id="Triangle-1" transform="translate(33.619070, 58.093628) rotate(33.000000) translate(-33.619070, -58.093628) "></path>
                            <path d="M44.1368233,59.1203656 L49.9428342,70.7275085 L38.3308123,70.7275085 L44.1368233,59.1203656 Z" id="Triangle-1-Copy" transform="translate(44.136823, 64.923937) rotate(33.000000) translate(-44.136823, -64.923937) "></path>
                            <path d="M54.654577,65.9506747 L60.4605879,77.5578176 L48.8485661,77.5578176 L54.654577,65.9506747 Z" id="Triangle-1-Copy-2" transform="translate(54.654577, 71.754246) rotate(33.000000) translate(-54.654577, -71.754246) "></path>
                            <rect id="Rectangle-8" transform="translate(40.708765, 32.016387) rotate(-33.000000) translate(-40.708765, -32.016387) " x="10.2852679" y="29.9271012" width="60.8469945" height="4.17857143"></rect>
                            <ellipse id="Oval-8" transform="translate(69.145655, 13.549255) rotate(-33.000000) translate(-69.145655, -13.549255) " cx="69.1456553" cy="13.5492551" rx="9.52185792" ry="9.51785714"></ellipse>
                            <g id="Triangle-1-+-Triangle-1-Copy-+-Triangle-1-Copy-2" transform="translate(44.000000, 38.500000) rotate(-180.000000) translate(-44.000000, -38.500000) translate(25.000000, 23.000000)">
                                <path d="M8.61906933,16.8102104 L14.4250803,28.4173532 L2.81305843,28.4173532 L8.61906933,16.8102104 Z" id="Triangle-1" transform="translate(8.619069, 22.613782) rotate(-33.000000) translate(-8.619069, -22.613782) "></path>
                                <path d="M19.1368234,9.97990163 L24.9428343,21.5870444 L13.3308124,21.5870444 L19.1368234,9.97990163 Z" id="Triangle-1-Copy" transform="translate(19.136823, 15.783473) rotate(-33.000000) translate(-19.136823, -15.783473) "></path>
                                <path d="M29.6545773,3.14959287 L35.4605882,14.7567358 L23.8485664,14.7567358 L29.6545773,3.14959287 Z" id="Triangle-1-Copy-2" transform="translate(29.654577, 8.953164) rotate(-33.000000) translate(-29.654577, -8.953164) "></path>
                            </g>
                            <ellipse id="Oval-8" cx="9.52185792" cy="51.7678571" rx="9.52185792" ry="9.51785714"></ellipse>
                        </g>
                    </g>
                </g>
            </g>
            <path d="M946.074703,1339.70632 C943.864554,1340.68674 941.4889,1341.34906 938.9961,1341.64703 C941.540264,1340.12174 943.494795,1337.70643 944.415139,1334.82826 C942.033477,1336.24091 939.395897,1337.26639 936.588306,1337.81907 C934.340311,1335.4236 931.137127,1333.92713 927.592119,1333.92713 C920.785655,1333.92713 915.266952,1339.4453 915.266952,1346.25176 C915.266952,1347.21776 915.375927,1348.15853 915.586099,1349.06055 C905.342881,1348.54661 896.261027,1343.63971 890.182338,1336.18294 C889.121298,1338.0032 888.513514,1340.12054 888.513514,1342.37935 C888.513514,1346.65546 890.689338,1350.42785 893.996631,1352.638 C891.976259,1352.57402 890.075705,1352.01953 888.414132,1351.09649 C888.412961,1351.14785 888.412961,1351.19921 888.412961,1351.25148 C888.412961,1357.22299 892.661474,1362.20415 898.299605,1363.33677 C897.265539,1363.61837 896.176685,1363.76915 895.052627,1363.76915 C894.25841,1363.76915 893.48633,1363.69172 892.733654,1363.54796 C894.302054,1368.44429 898.853764,1372.00795 904.247091,1372.10698 C900.028976,1375.41295 894.714707,1377.38334 888.94014,1377.38334 C887.94527,1377.38334 886.96413,1377.3248 886,1377.21099 C891.454363,1380.70787 897.932939,1382.74865 904.893134,1382.74865 C927.563286,1382.74865 939.960603,1363.96815 939.960603,1347.68094 C939.960603,1347.14657 939.948287,1346.61521 939.924558,1346.08656 C942.33295,1344.34859 944.422348,1342.1781 946.074703,1339.70632 L946.074703,1339.70632 Z" id="Oval-14-Copy-2-path" fill="#FFFFFF"></path>
        </g>
    </g>
</svg>