<?xml version="1.0" encoding="UTF-8" standalone="no"?>
<svg width="22px" height="42px" viewBox="0 0 22 42" version="1.1" xmlns="http://www.w3.org/2000/svg" xmlns:xlink="http://www.w3.org/1999/xlink">
    <!-- Generator: Sketch 3.6.1 (26313) - http://www.bohemiancoding.com/sketch -->
    <title>rightForkIcon</title>
    <desc>Created with Sketch.</desc>
    <defs></defs>
    <g id="Page-1" stroke="none" stroke-width="1" fill="none" fill-rule="evenodd">
        <g id="icons" transform="translate(-1314.000000, -475.000000)">
            <path d="M1315.40243,475.132602 L1335.86253,495.5927 L1314.86586,516.589374 L1315.40243,475.132602 Z" id="Rectangle-18-Copy-2" fill="#FD5622"></path>
            <path d="M1315,506.11648 C1315.93682,506.374743 1317.42513,506.894082 1318.63825,506.816227 C1320.23794,506.713563 1326.41007,502.687188 1329.11499,501.040789 C1331.5839,499.538039 1333.27009,498.317455 1333.54554,498.1159 L1333.58212,498.079326 L1333.35069,497.546952 L1322.20029,502.105495 C1322.20029,502.105495 1321.88854,501.979861 1321.88007,501.826795 C1321.87051,501.653952 1322.14619,501.127768 1322.14619,501.127768 L1332.8077,495.307724 L1332.5138,494.624026 L1320.50402,499.984124 C1320.50402,499.984124 1319.69331,500.497126 1319.57887,500.257673 C1319.46442,500.018221 1319.62355,499.582963 1320.26301,499.182975 C1320.90246,498.782987 1332.25299,492.740845 1332.25299,492.740845 L1332.09695,492.361149 L1332.00356,492.267758 L1320.96742,496.785811 C1320.96742,496.785811 1320.51565,497.052629 1320.4049,496.626871 C1320.29415,496.201112 1320.85384,495.858322 1320.85384,495.858322 L1330.38494,490.649135 L1329.7358,490 C1326.68194,490.918729 1319.94725,492.986849 1318.76115,493.707017 C1317.80649,494.286656 1316.25254,495.36875 1315.07205,496.869727 L1315,506.11648 Z" id="Combined-Shape-Copy" fill="#FFFFFF"></path>
        </g>
    </g>
</svg>