<?xml version="1.0" encoding="UTF-8" standalone="no"?>
<svg width="22px" height="42px" viewBox="0 0 22 42" version="1.1" xmlns="http://www.w3.org/2000/svg" xmlns:xlink="http://www.w3.org/1999/xlink">
    <!-- Generator: Sketch 3.6.1 (26313) - http://www.bohemiancoding.com/sketch -->
    <title>rightForkIconOver</title>
    <desc>Created with Sketch.</desc>
    <defs></defs>
    <g id="Page-1" stroke="none" stroke-width="1" fill="none" fill-rule="evenodd">
        <g id="icons" transform="translate(-1358.000000, -459.000000)">
            <path d="M1359.40243,459.132602 L1379.86253,479.5927 L1358.86586,500.589374 L1359.40243,459.132602 Z" id="Rectangle-18" fill="#FD5622"></path>
            <path d="M1358.93108,489.854538 C1359.86789,490.1128 1361.35621,490.63214 1362.56933,490.554285 C1364.16902,490.45162 1370.34115,486.425245 1373.04606,484.778846 C1375.51498,483.276097 1377.20117,482.055512 1377.47662,481.853958 L1377.51319,481.817384 L1377.28177,481.285009 L1366.13136,485.843552 C1366.13136,485.843552 1365.81962,485.717919 1365.81115,485.564853 C1365.80159,485.39201 1366.07726,484.865825 1366.07726,484.865825 L1376.73878,479.045781 L1376.44488,478.362084 L1364.4351,483.722182 C1364.4351,483.722182 1363.62439,484.235183 1363.50994,483.995731 C1363.3955,483.756278 1363.55463,483.321021 1364.19408,482.921033 C1364.83354,482.521044 1376.18407,476.478902 1376.18407,476.478902 L1376.02803,476.099206 L1375.93464,476.005815 L1364.89849,480.523869 C1364.89849,480.523869 1364.44672,480.790686 1364.33597,480.364928 C1364.22523,479.93917 1364.78492,479.59638 1364.78492,479.59638 L1374.31601,474.387192 L1373.66688,473.738057 C1370.61302,474.656786 1363.87833,476.724906 1362.69222,477.445074 C1361.73756,478.024714 1360.18362,479.106807 1359.00312,480.607784 L1358.93108,489.854538 Z" id="Combined-Shape" fill="#000000"></path>
        </g>
    </g>
</svg>